<?xml version="1.0" encoding="UTF-8"?>
<svg version="1.1" xmlns="http://www.w3.org/2000/svg" width="64" height="64" viewBox="0 0 500 500">
<path d="M0 0 C16.17 0 32.34 0 49 0 C49 16.83 49 33.66 49 51 C58.49892964 50.96040374 58.49892964 50.96040374 67.99780273 50.90991211 C69.17286377 50.90741455 70.3479248 50.90491699 71.55859375 50.90234375 C73.37315063 50.89448853 73.37315063 50.89448853 75.22436523 50.88647461 C78 51 78 51 79 52 C79.10099488 54.72724279 79.13970529 57.42862523 79.1328125 60.15625 C79.13376923 60.97371704 79.13472595 61.79118408 79.13571167 62.63342285 C79.13639345 64.36515378 79.13453929 66.09688724 79.13037109 67.82861328 C79.12502279 70.48866482 79.13031612 73.1485475 79.13671875 75.80859375 C79.13605797 77.48697954 79.1347768 79.16536523 79.1328125 80.84375 C79.13483673 81.64478149 79.13686096 82.44581299 79.13894653 83.27111816 C79.11495079 88.88504921 79.11495079 88.88504921 78 90 C75.85441173 90.08775605 73.70595579 90.10695219 71.55859375 90.09765625 C70.25341797 90.09443359 68.94824219 90.09121094 67.60351562 90.08789062 C66.2148431 90.07953401 64.82617123 90.07106905 63.4375 90.0625 C62.04492344 90.05748666 60.65234519 90.05292347 59.25976562 90.04882812 C55.8398013 90.03699434 52.41992156 90.0205088 49 90 C49.11887893 96.24401076 49.24316535 102.48788266 49.37231445 108.73168945 C49.41544325 110.85275398 49.45713236 112.97384831 49.49731445 115.0949707 C49.55555534 118.15585283 49.61909048 121.21658794 49.68359375 124.27734375 C49.70030624 125.21521225 49.71701874 126.15308075 49.73423767 127.11936951 C49.60072535 137.96775935 49.60072535 137.96775935 53 148 C53.66 148.33 54.32 148.66 55 149 C55 149.66 55 150.32 55 151 C60.70971741 150.63204043 64.92500676 149.84694743 70 147 C70.66 147 71.32 147 72 147 C74.90349671 155.47923817 77.67572887 163.9965485 80.3125 172.5625 C80.57885254 173.40651367 80.84520508 174.25052734 81.11962891 175.12011719 C82.46490191 179.54547355 83.32635689 183.31715812 83 188 C81.14801206 188.79675015 79.2932889 189.58714361 77.4375 190.375 C76.40496094 190.81585938 75.37242187 191.25671875 74.30859375 191.7109375 C60.00517063 197.28369975 40.337391 198.46228774 25.99609375 192.41015625 C22.5283028 190.80599635 19.18573604 189.12224849 16 187 C15.67 186.01 15.34 185.02 15 184 C14.34 183.690625 13.68 183.38125 13 183.0625 C11 182 11 182 10.25 179.875 C10.12625 178.946875 10.12625 178.946875 10 178 C9.34 178 8.68 178 8 178 C7.21770275 176.40139257 6.44996969 174.79565879 5.6875 173.1875 C5.25824219 172.29417969 4.82898438 171.40085937 4.38671875 170.48046875 C0.39179897 160.45378278 -0.41479978 151.18060178 -0.29296875 140.48828125 C-0.28735947 139.02427103 -0.28309568 137.5602551 -0.28010559 136.09623718 C-0.26876143 132.28052671 -0.23938706 128.46516986 -0.20599365 124.64959717 C-0.17506503 120.74105612 -0.16155203 116.8324568 -0.14648438 112.92382812 C-0.1145048 105.28237374 -0.06182523 97.64128188 0 90 C-6.6 90 -13.2 90 -20 90 C-20 77.13 -20 64.26 -20 51 C-13.4 51 -6.8 51 0 51 C0 34.17 0 17.34 0 0 Z " fill="#040404" transform="translate(197,117)"/>
<path d="M0 0 C9.24 0 18.48 0 28 0 C28.020625 4.599375 28.04125 9.19875 28.0625 13.9375 C28.071604 15.39019287 28.08070801 16.84288574 28.09008789 18.33959961 C28.09258545 19.47405518 28.09508301 20.60851074 28.09765625 21.77734375 C28.10551147 23.52905884 28.10551147 23.52905884 28.11352539 25.31616211 C28 28 28 28 27 29 C25.00035018 29.08758003 22.9976389 29.10696576 20.99609375 29.09765625 C19.90224365 29.09515869 18.80839355 29.09266113 17.68139648 29.09008789 C16.28091064 29.08098389 14.8804248 29.07187988 13.4375 29.0625 C6.7859375 29.0315625 6.7859375 29.0315625 0 29 C0 19.43 0 9.86 0 0 Z " fill="#034AAA" transform="translate(297,279)"/>
<path d="M0 0 C9.24 0 18.48 0 28 0 C28 0.33 28 0.66 28 1 C19.42 1.33 10.84 1.66 2 2 C2 9.92 2 17.84 2 26 C10.25 26 18.5 26 27 26 C27 26.99 27 27.98 27 29 C18.09 29 9.18 29 0 29 C0 19.43 0 9.86 0 0 Z " fill="#5F81AE" transform="translate(297,279)"/>
</svg>
